<svg width="32" height="32" viewBox="0 0 32 32" xmlns="http://www.w3.org/2000/svg">
  <!-- Background Circle -->
  <circle cx="16" cy="16" r="15" fill="#6A7954" stroke="#EAE0D5" stroke-width="2"/>
  
  <!-- House Icon -->
  <path d="M8 18L16 10L24 18V26C24 26.5523 23.5523 27 23 27H9C8.44772 27 8 26.5523 8 26V18Z" fill="#EAE0D5"/>
  <path d="M12 27V21C12 20.4477 12.4477 20 13 20H19C19.5523 20 20 20.4477 20 21V27" fill="#6A7954"/>
  
  <!-- Briefing Lines -->
  <rect x="10" y="13" width="3" height="1" rx="0.5" fill="#EAE0D5"/>
  <rect x="19" y="13" width="3" height="1" rx="0.5" fill="#EAE0D5"/>
  <rect x="10" y="15" width="2" height="1" rx="0.5" fill="#EAE0D5"/>
  <rect x="20" y="15" width="2" height="1" rx="0.5" fill="#EAE0D5"/>
</svg>