<svg width="32" height="32" viewBox="0 0 32 32" fill="none" xmlns="http://www.w3.org/2000/svg">
  <defs>
    <linearGradient id="bgGrad" x1="0%" y1="0%" x2="100%" y2="100%">
      <stop offset="0%" stop-color="#667eea"/>
      <stop offset="100%" stop-color="#764ba2"/>
    </linearGradient>
    <linearGradient id="thermoBody" x1="0%" y1="0%" x2="0%" y2="100%">
      <stop offset="0%" stop-color="#a855f7"/>
      <stop offset="50%" stop-color="#6366f1"/>
      <stop offset="100%" stop-color="#4338ca"/>
    </linearGradient>
    <linearGradient id="thermoBulb" x1="0%" y1="0%" x2="0%" y2="100%">
      <stop offset="0%" stop-color="#f59e0b"/>
      <stop offset="100%" stop-color="#ef4444"/>
    </linearGradient>
    <radialGradient id="glow" cx="50%" cy="50%" r="50%">
      <stop offset="0%" stop-color="#ffffff" stop-opacity="0.3"/>
      <stop offset="100%" stop-color="#ffffff" stop-opacity="0"/>
    </radialGradient>
  </defs>
  
  <!-- 배경 원 -->
  <circle cx="16" cy="16" r="16" fill="url(#bgGrad)"/>
  
  <!-- 글로우 효과 -->
  <circle cx="16" cy="16" r="16" fill="url(#glow)"/>
  
  <!-- 온도계 몸체 -->
  <rect x="13" y="6" width="6" height="16" rx="3" fill="url(#thermoBody)" stroke="rgba(255,255,255,0.4)" stroke-width="0.8"/>
  
  <!-- 온도계 구 -->
  <circle cx="16" cy="25" r="3.5" fill="url(#thermoBulb)" stroke="rgba(255,255,255,0.4)" stroke-width="0.8"/>
  
  <!-- 온도 표시선들 -->
  <line x1="19" y1="9" x2="21" y2="9" stroke="rgba(255,255,255,0.8)" stroke-width="1.2" stroke-linecap="round"/>
  <line x1="19" y1="12" x2="22" y2="12" stroke="rgba(255,255,255,0.8)" stroke-width="1.2" stroke-linecap="round"/>
  <line x1="19" y1="15" x2="21" y2="15" stroke="rgba(255,255,255,0.8)" stroke-width="1.2" stroke-linecap="round"/>
  <line x1="19" y1="18" x2="22" y2="18" stroke="rgba(255,255,255,0.8)" stroke-width="1.2" stroke-linecap="round"/>
  
  <!-- 감성 파동 효과 -->
  <circle cx="16" cy="16" r="10" fill="none" stroke="rgba(255,255,255,0.3)" stroke-width="1" opacity="0.6"/>
  <circle cx="16" cy="16" r="12" fill="none" stroke="rgba(255,255,255,0.2)" stroke-width="0.8" opacity="0.4"/>
  
  <!-- 하트 아이콘 -->
  <path d="M16 11c-1.2-1.5-3.2-1.5-3.2 0.4s2 2.8 3.2 4.4c1.2-1.6 3.2-2.8 3.2-4.4s-2-1.9-3.2-0.4z" fill="#fbbf24" opacity="0.9"/>
  
  <!-- 온도계 구 글로우 -->
  <circle cx="16" cy="25" r="3.5" fill="none" stroke="#fbbf24" stroke-width="0.5" opacity="0.7"/>
  <circle cx="16" cy="25" r="4.5" fill="none" stroke="#f59e0b" stroke-width="0.3" opacity="0.5"/>
</svg>